<mxfile host="app.diagrams.net" agent="Mozilla/5.0 (Windows NT 10.0; Win64; x64) AppleWebKit/537.36 (KHTML, like Gecko) Chrome/130.0.0.0 Safari/537.36" version="24.8.3">
  <diagram name="第 1 页" id="97HKw-2ryqzNdwno_2KQ">
    <mxGraphModel dx="1526" dy="949" grid="1" gridSize="10" guides="1" tooltips="1" connect="1" arrows="1" fold="1" page="1" pageScale="1" pageWidth="827" pageHeight="1169" math="0" shadow="0">
      <root>
        <mxCell id="0" />
        <mxCell id="1" parent="0" />
        <mxCell id="UOdNGb91k2TACvgjtIWy-20" value="" style="ellipse;whiteSpace=wrap;html=1;" vertex="1" parent="1">
          <mxGeometry x="250" y="110" width="870" height="500" as="geometry" />
        </mxCell>
        <mxCell id="UOdNGb91k2TACvgjtIWy-5" style="edgeStyle=orthogonalEdgeStyle;rounded=0;orthogonalLoop=1;jettySize=auto;html=1;entryX=0;entryY=0.5;entryDx=0;entryDy=0;" edge="1" parent="1" source="UOdNGb91k2TACvgjtIWy-1" target="UOdNGb91k2TACvgjtIWy-4">
          <mxGeometry relative="1" as="geometry" />
        </mxCell>
        <mxCell id="UOdNGb91k2TACvgjtIWy-1" value="wazuh-agent&lt;div&gt;os: Linux&lt;/div&gt;" style="rounded=0;whiteSpace=wrap;html=1;" vertex="1" parent="1">
          <mxGeometry x="70" y="220" width="120" height="60" as="geometry" />
        </mxCell>
        <mxCell id="UOdNGb91k2TACvgjtIWy-6" style="edgeStyle=orthogonalEdgeStyle;rounded=0;orthogonalLoop=1;jettySize=auto;html=1;" edge="1" parent="1" source="UOdNGb91k2TACvgjtIWy-2">
          <mxGeometry relative="1" as="geometry">
            <mxPoint x="330" y="370" as="targetPoint" />
          </mxGeometry>
        </mxCell>
        <mxCell id="UOdNGb91k2TACvgjtIWy-2" value="&lt;div&gt;wazuh-agent&lt;/div&gt;os: Windows" style="rounded=0;whiteSpace=wrap;html=1;" vertex="1" parent="1">
          <mxGeometry x="70" y="340" width="120" height="60" as="geometry" />
        </mxCell>
        <mxCell id="UOdNGb91k2TACvgjtIWy-7" style="edgeStyle=orthogonalEdgeStyle;rounded=0;orthogonalLoop=1;jettySize=auto;html=1;" edge="1" parent="1" source="UOdNGb91k2TACvgjtIWy-3">
          <mxGeometry relative="1" as="geometry">
            <mxPoint x="330" y="370" as="targetPoint" />
            <Array as="points">
              <mxPoint x="331" y="500" />
              <mxPoint x="331" y="370" />
            </Array>
          </mxGeometry>
        </mxCell>
        <mxCell id="UOdNGb91k2TACvgjtIWy-3" value="wazuh-agent&lt;div&gt;os: Mac Os&lt;/div&gt;" style="rounded=0;whiteSpace=wrap;html=1;" vertex="1" parent="1">
          <mxGeometry x="70" y="470" width="120" height="60" as="geometry" />
        </mxCell>
        <mxCell id="UOdNGb91k2TACvgjtIWy-9" value="" style="edgeStyle=orthogonalEdgeStyle;rounded=0;orthogonalLoop=1;jettySize=auto;html=1;" edge="1" parent="1" source="UOdNGb91k2TACvgjtIWy-4" target="UOdNGb91k2TACvgjtIWy-8">
          <mxGeometry relative="1" as="geometry" />
        </mxCell>
        <mxCell id="UOdNGb91k2TACvgjtIWy-4" value="wazuh-logger" style="rounded=0;whiteSpace=wrap;html=1;" vertex="1" parent="1">
          <mxGeometry x="340" y="340" width="120" height="60" as="geometry" />
        </mxCell>
        <mxCell id="UOdNGb91k2TACvgjtIWy-11" value="" style="edgeStyle=orthogonalEdgeStyle;rounded=0;orthogonalLoop=1;jettySize=auto;html=1;" edge="1" parent="1" source="UOdNGb91k2TACvgjtIWy-8" target="UOdNGb91k2TACvgjtIWy-10">
          <mxGeometry relative="1" as="geometry" />
        </mxCell>
        <mxCell id="UOdNGb91k2TACvgjtIWy-8" value="wazuh-Manage" style="rounded=0;whiteSpace=wrap;html=1;" vertex="1" parent="1">
          <mxGeometry x="540" y="340" width="120" height="60" as="geometry" />
        </mxCell>
        <mxCell id="UOdNGb91k2TACvgjtIWy-14" value="" style="edgeStyle=orthogonalEdgeStyle;rounded=0;orthogonalLoop=1;jettySize=auto;html=1;" edge="1" parent="1" source="UOdNGb91k2TACvgjtIWy-10" target="UOdNGb91k2TACvgjtIWy-13">
          <mxGeometry relative="1" as="geometry" />
        </mxCell>
        <mxCell id="UOdNGb91k2TACvgjtIWy-19" style="edgeStyle=orthogonalEdgeStyle;rounded=0;orthogonalLoop=1;jettySize=auto;html=1;entryX=0;entryY=0.5;entryDx=0;entryDy=0;" edge="1" parent="1" source="UOdNGb91k2TACvgjtIWy-10" target="UOdNGb91k2TACvgjtIWy-17">
          <mxGeometry relative="1" as="geometry" />
        </mxCell>
        <mxCell id="UOdNGb91k2TACvgjtIWy-10" value="API接口" style="rounded=0;whiteSpace=wrap;html=1;" vertex="1" parent="1">
          <mxGeometry x="680" y="340" width="120" height="60" as="geometry" />
        </mxCell>
        <mxCell id="UOdNGb91k2TACvgjtIWy-16" value="" style="edgeStyle=orthogonalEdgeStyle;rounded=0;orthogonalLoop=1;jettySize=auto;html=1;" edge="1" parent="1" source="UOdNGb91k2TACvgjtIWy-13" target="UOdNGb91k2TACvgjtIWy-15">
          <mxGeometry relative="1" as="geometry" />
        </mxCell>
        <mxCell id="UOdNGb91k2TACvgjtIWy-13" value="wazuh-Dashboard" style="rounded=0;whiteSpace=wrap;html=1;" vertex="1" parent="1">
          <mxGeometry x="680" y="480" width="120" height="60" as="geometry" />
        </mxCell>
        <mxCell id="UOdNGb91k2TACvgjtIWy-18" value="" style="edgeStyle=orthogonalEdgeStyle;rounded=0;orthogonalLoop=1;jettySize=auto;html=1;" edge="1" parent="1" source="UOdNGb91k2TACvgjtIWy-15" target="UOdNGb91k2TACvgjtIWy-17">
          <mxGeometry relative="1" as="geometry" />
        </mxCell>
        <mxCell id="UOdNGb91k2TACvgjtIWy-15" value="wazuh-Index" style="whiteSpace=wrap;html=1;rounded=0;" vertex="1" parent="1">
          <mxGeometry x="880" y="480" width="120" height="60" as="geometry" />
        </mxCell>
        <mxCell id="UOdNGb91k2TACvgjtIWy-17" value="filebeat" style="whiteSpace=wrap;html=1;rounded=0;" vertex="1" parent="1">
          <mxGeometry x="880" y="340" width="120" height="60" as="geometry" />
        </mxCell>
        <mxCell id="UOdNGb91k2TACvgjtIWy-21" value="wazuh核心组件" style="text;html=1;align=center;verticalAlign=middle;whiteSpace=wrap;rounded=0;" vertex="1" parent="1">
          <mxGeometry x="580" y="150" width="170" height="40" as="geometry" />
        </mxCell>
      </root>
    </mxGraphModel>
  </diagram>
</mxfile>
